<svg width="61" height="40" viewBox="0 0 61 40" fill="none" xmlns="http://www.w3.org/2000/svg">
<rect x="0.5" width="40" height="40" rx="20" fill="#808080"/>
<g clip-path="url(#clip0_264_619)">
<g clip-path="url(#clip1_264_619)">
<path d="M20.4954 39.0532C31.0208 39.0532 39.5533 30.5207 39.5533 19.9953C39.5533 9.46994 31.0208 0.937439 20.4954 0.937439C9.97001 0.937439 1.4375 9.46994 1.4375 19.9953C1.4375 30.5207 9.97001 39.0532 20.4954 39.0532Z" fill="white" stroke="black" stroke-width="1.87485" stroke-miterlimit="10"/>
<path d="M5.02783 31.1413C6.79316 28.6888 9.11637 26.6913 11.8057 25.3135C14.4951 23.9357 17.4736 23.2171 20.4954 23.2171C23.5172 23.2171 26.4956 23.9357 29.185 25.3135C31.8744 26.6913 34.1976 28.6888 35.9629 31.1413" fill="white"/>
<path d="M5.02783 31.1413C6.79316 28.6888 9.11637 26.6913 11.8057 25.3135C14.4951 23.9357 17.4736 23.2171 20.4954 23.2171C23.5172 23.2171 26.4956 23.9357 29.185 25.3135C31.8744 26.6913 34.1976 28.6888 35.9629 31.1413" stroke="black" stroke-width="1.87485" stroke-miterlimit="10"/>
<path d="M20.4954 22.6482C24.4509 22.6482 27.6574 19.4417 27.6574 15.4863C27.6574 11.5309 24.4509 8.32434 20.4954 8.32434C16.54 8.32434 13.3335 11.5309 13.3335 15.4863C13.3335 19.4417 16.54 22.6482 20.4954 22.6482Z" fill="white" stroke="black" stroke-width="1.87485" stroke-miterlimit="10"/>
</g>
</g>
<g clip-path="url(#clip2_264_619)">
<path d="M42.1001 16.67H54.1001L48.1001 24.67L42.1001 16.67Z" fill="#C4C7CA"/>
</g>
<defs>
<clipPath id="clip0_264_619">
<rect width="40" height="40" fill="white" transform="translate(0.5)"/>
</clipPath>
<clipPath id="clip1_264_619">
<rect width="40" height="40" fill="white" transform="translate(0.5)"/>
</clipPath>
<clipPath id="clip2_264_619">
<rect width="12" height="9" fill="white" transform="translate(42.1001 16.67)"/>
</clipPath>
</defs>
</svg>
