<svg width="41" height="41" viewBox="0 0 41 41" fill="none" xmlns="http://www.w3.org/2000/svg">
<g clip-path="url(#clip0_86_9125)">
<g clip-path="url(#clip1_86_9125)">
<g clip-path="url(#clip2_86_9125)">
<path fill-rule="evenodd" clip-rule="evenodd" d="M8.59724 14.2783H16.5105C18.1673 14.2783 19.5104 15.6275 19.5104 17.2918V39.9304H5.59735V17.2918C5.59735 15.6275 6.94045 14.2783 8.59724 14.2783Z" stroke="#5D87A1" stroke-width="0.869565"/>
<path d="M9.07562 14.2782V10.0071C9.09954 9.46615 9.57486 9.04436 10.1414 9.06135H15.4011C15.9677 9.04436 16.443 9.46615 16.4669 10.0071V14.2782" stroke="#5D87A1" stroke-width="0.869565"/>
<path d="M12.7712 9.06086V1.23477" stroke="#5D87A1" stroke-width="0.869565" stroke-linecap="round" stroke-linejoin="round"/>
<path d="M35.1626 19.9304H27.3365V40.3652H35.1626V19.9304Z" fill="#5D87A1" stroke="#5D87A1" stroke-width="0.869565" stroke-linecap="round" stroke-linejoin="round"/>
<path d="M19.5104 24.4956H27.3365" stroke="#5D87A1" stroke-width="0.869565" stroke-linecap="round" stroke-linejoin="round"/>
<path d="M19.5104 40.1478H27.3365" stroke="#5D87A1" stroke-width="0.869565" stroke-linecap="round" stroke-linejoin="round"/>
<path d="M34.7278 16.4521H29.9452V19.9304H34.7278V16.4521Z" fill="#5D87A1"/>
<path d="M31.9321 22.9739H30.5669C30.2236 22.9739 29.9452 23.2523 29.9452 23.5956V24.9609C29.9452 25.3042 30.2236 25.5826 30.5669 25.5826H31.9321C32.2755 25.5826 32.5539 25.3042 32.5539 24.9609V23.5956C32.5539 23.2523 32.2755 22.9739 31.9321 22.9739Z" fill="white"/>
<path d="M31.9321 28.6261H30.5669C30.2236 28.6261 29.9452 28.9044 29.9452 29.2478V30.613C29.9452 30.9564 30.2236 31.2348 30.5669 31.2348H31.9321C32.2755 31.2348 32.5539 30.9564 32.5539 30.613V29.2478C32.5539 28.9044 32.2755 28.6261 31.9321 28.6261Z" fill="white"/>
<path d="M31.9321 33.8435H30.5669C30.2236 33.8435 29.9452 34.1218 29.9452 34.4652V35.8304C29.9452 36.1738 30.2236 36.4522 30.5669 36.4522H31.9321C32.2755 36.4522 32.5539 36.1738 32.5539 35.8304V34.4652C32.5539 34.1218 32.2755 33.8435 31.9321 33.8435Z" fill="white"/>
<path d="M24.106 28.6261H22.7408C22.3974 28.6261 22.1191 28.9044 22.1191 29.2478V30.613C22.1191 30.9564 22.3974 31.2348 22.7408 31.2348H24.106C24.4494 31.2348 24.7278 30.9564 24.7278 30.613V29.2478C24.7278 28.9044 24.4494 28.6261 24.106 28.6261Z" fill="#5D87A1"/>
<path d="M24.106 33.8435H22.7408C22.3974 33.8435 22.1191 34.1218 22.1191 34.4652V35.8304C22.1191 36.1738 22.3974 36.4522 22.7408 36.4522H24.106C24.4494 36.4522 24.7278 36.1738 24.7278 35.8304V34.4652C24.7278 34.1218 24.4494 33.8435 24.106 33.8435Z" fill="#5D87A1"/>
<path d="M15.4104 33.8435H14.0452C13.7018 33.8435 13.4235 34.1218 13.4235 34.4652V35.8304C13.4235 36.1738 13.7018 36.4522 14.0452 36.4522H15.4104C15.7538 36.4522 16.0322 36.1738 16.0322 35.8304V34.4652C16.0322 34.1218 15.7538 33.8435 15.4104 33.8435Z" fill="#5D87A1"/>
<path d="M15.4104 28.6261H14.0452C13.7018 28.6261 13.4235 28.9044 13.4235 29.2478V30.613C13.4235 30.9564 13.7018 31.2348 14.0452 31.2348H15.4104C15.7538 31.2348 16.0322 30.9564 16.0322 30.613V29.2478C16.0322 28.9044 15.7538 28.6261 15.4104 28.6261Z" fill="#5D87A1"/>
<path d="M15.4104 22.9739H14.0452C13.7018 22.9739 13.4235 23.2523 13.4235 23.5956V24.9609C13.4235 25.3042 13.7018 25.5826 14.0452 25.5826H15.4104C15.7538 25.5826 16.0322 25.3042 16.0322 24.9609V23.5956C16.0322 23.2523 15.7538 22.9739 15.4104 22.9739Z" fill="#5D87A1"/>
<path d="M15.4104 17.7565H14.0452C13.7018 17.7565 13.4235 18.0349 13.4235 18.3782V19.7435C13.4235 20.0868 13.7018 20.3652 14.0452 20.3652H15.4104C15.7538 20.3652 16.0322 20.0868 16.0322 19.7435V18.3782C16.0322 18.0349 15.7538 17.7565 15.4104 17.7565Z" fill="#5D87A1"/>
<path d="M10.6278 33.8435H9.26255C8.91917 33.8435 8.64081 34.1218 8.64081 34.4652V35.8304C8.64081 36.1738 8.91917 36.4522 9.26255 36.4522H10.6278C10.9711 36.4522 11.2495 36.1738 11.2495 35.8304V34.4652C11.2495 34.1218 10.9711 33.8435 10.6278 33.8435Z" fill="#5D87A1"/>
<path d="M10.6278 28.6261H9.26255C8.91917 28.6261 8.64081 28.9044 8.64081 29.2478V30.613C8.64081 30.9564 8.91917 31.2348 9.26255 31.2348H10.6278C10.9711 31.2348 11.2495 30.9564 11.2495 30.613V29.2478C11.2495 28.9044 10.9711 28.6261 10.6278 28.6261Z" fill="#5D87A1"/>
<path d="M10.6278 22.9739H9.26255C8.91917 22.9739 8.64081 23.2523 8.64081 23.5956V24.9609C8.64081 25.3042 8.91917 25.5826 9.26255 25.5826H10.6278C10.9711 25.5826 11.2495 25.3042 11.2495 24.9609V23.5956C11.2495 23.2523 10.9711 22.9739 10.6278 22.9739Z" fill="#5D87A1"/>
<path d="M10.6278 17.7565H9.26255C8.91917 17.7565 8.64081 18.0349 8.64081 18.3782V19.7435C8.64081 20.0868 8.91917 20.3652 9.26255 20.3652H10.6278C10.9711 20.3652 11.2495 20.0868 11.2495 19.7435V18.3782C11.2495 18.0349 10.9711 17.7565 10.6278 17.7565Z" fill="#5D87A1"/>
</g>
</g>
</g>
<defs>
<clipPath id="clip0_86_9125">
<rect width="40" height="40" fill="white" transform="translate(0.380005 0.799988)"/>
</clipPath>
<clipPath id="clip1_86_9125">
<rect width="40" height="40" fill="white" transform="translate(0.380005 0.799988)"/>
</clipPath>
<clipPath id="clip2_86_9125">
<rect width="30.4348" height="40" fill="white" transform="translate(5.1626 0.799988)"/>
</clipPath>
</defs>
</svg>
