<svg width="41" height="41" viewBox="0 0 41 41" fill="none" xmlns="http://www.w3.org/2000/svg">
<g clip-path="url(#clip0_86_9103)">
<g clip-path="url(#clip1_86_9103)">
<g clip-path="url(#clip2_86_9103)">
<path d="M16.8046 19.1333H1.41345V11.3555H16.8046" stroke="#F08B1D" stroke-width="1.11111"/>
<path d="M24.3556 11.3555H39.7467V19.1333H24.3556" stroke="#F08B1D" stroke-width="1.11111"/>
<path d="M16.8049 39.6889H2.52454V19.1333H16.8049" stroke="#F08B1D" stroke-width="1.11111"/>
<path d="M24.9109 19.1333H39.1912V39.6889H24.9109" stroke="#F08B1D" stroke-width="1.11111"/>
<path fill-rule="evenodd" clip-rule="evenodd" d="M24.469 11.6333V39.9666H16.6912V11.6333H24.469Z" fill="#F08B1D" stroke="#F08B1D" stroke-width="1.11111"/>
<path fill-rule="evenodd" clip-rule="evenodd" d="M20.5286 10.3528C18.47 9.93882 16.7048 8.61118 15.7215 6.73727C15.7215 6.73727 10.7427 -1.83315 7.11681 2.65677C6.38888 3.55892 5.1459 8.30562 9.953 9.97807C10.3925 10.1307 16.7722 11.484 20.5286 10.3528Z" stroke="#F08B1D" stroke-width="1.11111"/>
<path fill-rule="evenodd" clip-rule="evenodd" d="M20.6316 10.3528C22.6902 9.93882 24.4554 8.61118 25.4387 6.73727C25.4387 6.73727 30.4175 -1.83315 34.0434 2.65677C34.7713 3.55892 36.0143 8.30562 31.2072 9.97807C30.7746 10.1307 24.3949 11.484 20.6316 10.3528Z" stroke="#F08B1D" stroke-width="1.11111"/>
</g>
</g>
</g>
<defs>
<clipPath id="clip0_86_9103">
<rect width="40" height="40" fill="white" transform="translate(0.580078 0.799988)"/>
</clipPath>
<clipPath id="clip1_86_9103">
<rect width="40" height="40" fill="white" transform="translate(0.580078 0.799988)"/>
</clipPath>
<clipPath id="clip2_86_9103">
<rect width="39.4444" height="40" fill="white" transform="translate(0.85791 0.799988)"/>
</clipPath>
</defs>
</svg>
