<svg width="41" height="41" viewBox="0 0 41 41" fill="none" xmlns="http://www.w3.org/2000/svg">
<g clip-path="url(#clip0_86_9157)">
<g clip-path="url(#clip1_86_9157)">
<g clip-path="url(#clip2_86_9157)">
<path d="M31.3128 28.5047C31.2893 27.396 32.0033 26.7338 31.9819 25.623C31.9605 24.5121 31.6335 23.3265 30.7591 22.6322C29.75 21.8461 28.2963 22.6536 27.0543 22.3545C26.1115 22.126 24.3777 20.9382 23.6722 20.276C22.9667 19.6138 23.281 18.6717 23.1314 17.6762C22.9631 16.6655 23.2708 15.6338 23.9651 14.8799C24.6193 14.2091 28.9762 14.2112 29.9147 14.2112C31.5223 14.2112 32.6404 15.5122 34.0257 14.6962C35.0796 14.0745 32.743 10.663 32.3774 10.4686C31.8956 10.2951 31.3919 10.1894 30.881 10.1546C29.8762 10.1076 29.4978 10.5818 28.5294 10.8915C27.8153 11.1329 24.3756 11.4598 24.1618 11.3273C23.7342 11.0283 22.8342 10.3425 23.2789 9.77858C23.4755 9.53291 24.057 8.39858 24.3007 8.23409C24.6663 7.98842 26.3274 7.87734 26.7314 7.76625C26.8982 7.71926 27.2638 7.05489 27.283 6.88186C27.3022 6.70882 28.0612 5.3395 28.7239 5.11947C28.8479 5.07888 29.6282 4.83963 30.5539 4.56405C23.906 0.139949 15.2111 0.292243 8.72246 4.94644C9.29967 5.41 9.92605 5.80093 10.2403 5.82442C11.4374 5.90841 12.6404 5.8366 13.819 5.6108C14.6592 5.44845 15.4929 5.20919 16.3459 5.21774C17.5778 5.23557 18.7466 5.76497 19.5719 6.67891C19.6986 6.80612 19.7963 6.95914 19.8584 7.12752C19.9263 7.45088 19.8722 7.78793 19.7066 8.07387C19.1911 9.17346 18.3431 10.0836 17.2823 10.6758C16.549 11.0817 15.6768 11.3701 15.2407 12.0878C14.9649 12.5407 14.9157 13.0961 14.6998 13.5832C14.2188 14.6513 12.9895 15.2131 11.8351 15.4054C10.6807 15.5977 10.2638 15.4588 9.1201 15.7515C8.86433 15.8019 8.62452 15.9133 8.42103 16.0762C7.89513 16.5547 8.12174 17.5074 8.71391 17.8984C9.30609 18.2893 12.0382 20.2995 12.6774 20.2653C13.523 20.213 14.3709 20.2066 15.2172 20.2461C16.0723 20.2952 16.9616 20.4447 17.5901 21.0108C17.9664 21.3484 18.2101 21.8034 18.4966 22.2178C19.1379 23.1471 21.4361 23.1108 22.1822 23.9567C22.9283 24.8026 22.1544 26.6035 22.1822 27.7335C22.203 28.0389 22.1331 28.3436 21.9812 28.6094C21.8214 28.821 21.6252 29.0025 21.4019 29.1456C19.6403 30.4487 18.4217 34.4028 17.5773 36.4237C16.8227 36.7484 15.1658 35.0587 14.7447 34.3537C14.3235 33.6488 14.8388 31.8244 14.8238 31.002C14.8238 30.2949 14.8238 29.5622 14.5309 28.9127C13.9366 27.5541 12.2969 26.9709 11.4482 25.7533C11.2333 25.4611 11.0958 25.1194 11.0484 24.7599C10.9437 23.6918 9.16285 21.5428 8.62412 21.3697C8.12815 21.2074 5.81717 19.1758 5.25065 18.1141C4.68412 17.0524 4.98769 15.8732 4.80598 14.6812C4.48103 13.9848 3.21758 13.6409 2.1166 13.3354C-1.42549 22.1025 1.95234 32.1413 10.0756 36.9891C18.1989 41.837 28.6456 40.0485 34.6905 32.775C34.1184 32.529 33.5641 32.2435 33.0316 31.9205C32.153 31.2434 31.3363 29.6177 31.3128 28.5047Z" stroke="#E3B430" stroke-width="1.09918" stroke-linecap="round"/>
<path d="M5.03558 14.4529C5.21624 15.6548 4.9123 16.8437 5.47767 17.9142C6.04304 18.9847 8.33852 21.033 8.83162 21.1967C9.36723 21.3712 11.1377 23.5294 11.2419 24.6149C11.2889 24.9774 11.4257 25.3219 11.6393 25.6165C12.4895 26.8442 14.1133 27.4322 14.7042 28.802C14.9869 29.4482 14.9848 30.1956 14.9954 30.9085C15.0103 31.7378 14.498 33.575 14.9168 34.2879C15.3355 35.0009 16.9827 36.7024 17.733 36.375C18.5831 34.3375 19.784 30.3442 21.5354 29.0368C21.7575 28.8926 21.9525 28.7095 22.1114 28.4962C22.2624 28.2282 22.3319 27.921 22.3112 27.6131C22.2835 26.4737 23.0551 24.658 22.3112 23.805C21.5673 22.9521 19.2867 22.9887 18.6469 22.0518C18.3621 21.6339 18.1198 21.1752 17.7457 20.8349C17.1208 20.2641 16.2282 20.1133 15.3865 20.0638C14.5451 20.0239 13.7022 20.0304 12.8615 20.0832C12.2238 20.1176 9.50963 18.0887 8.92089 17.6945C8.33214 17.3004 8.10684 16.3397 8.6297 15.8573C8.83201 15.6931 9.07043 15.5808 9.32472 15.5299C10.4618 15.2348 10.8657 15.3769 12.024 15.1809C13.1824 14.9849 14.3939 14.4357 14.8721 13.3437C15.0847 12.8548 15.1357 12.2948 15.4099 11.836C15.835 11.1123 16.7106 10.8215 17.4397 10.4123C18.4943 9.81515 19.3374 8.89753 19.8499 7.78886C20.0146 7.50055 20.0684 7.16072 20.0008 6.83469C19.9391 6.66492 19.8419 6.51064 19.716 6.38238C18.8955 5.46089 17.7334 4.92711 16.5087 4.90913C15.6585 4.90913 14.8317 5.14175 13.9964 5.30544C12.8247 5.53311 11.6286 5.60551 10.4385 5.52083C10.126 5.49929 9.50326 5.10298 8.92939 4.63559C5.99752 6.77164 3.72086 9.70368 2.36177 13.0938C3.45 13.404 4.71251 13.7508 5.03558 14.4529Z" fill="#E3B430" stroke="#E3B430" stroke-width="1.09918" stroke-linecap="round"/>
<path d="M34.6538 8.31289C33.488 6.8998 32.1313 5.66174 30.6241 4.63559C29.7057 4.91381 28.9273 5.15537 28.8086 5.19635C28.1511 5.41203 27.396 6.82472 27.3791 6.97569C27.3621 7.12666 26.9973 7.82115 26.8319 7.8686C26.431 7.98075 24.7831 8.08427 24.4204 8.34093C24.1786 8.507 23.6017 9.65225 23.4066 9.90028C22.9527 10.4697 23.8372 11.1663 24.2613 11.4639C24.4628 11.6063 27.8669 11.2677 28.5837 11.0326C29.5466 10.7134 29.922 10.241 30.9167 10.2885C31.4237 10.3237 31.9234 10.4304 32.4014 10.6055C32.7725 10.8018 35.0822 14.2462 34.0366 14.8738C32.6623 15.6977 31.553 14.3864 29.9581 14.3842C29.027 14.3842 24.7046 14.3842 24.0556 15.0593C23.3667 15.8204 23.0616 16.8621 23.2285 17.8825C23.3769 18.8876 23.0354 19.8085 23.765 20.5073C24.4946 21.2061 26.185 22.3751 27.1203 22.6058C28.3526 22.9078 29.7948 22.0925 30.7959 22.8862C31.6633 23.5764 31.9857 24.7756 32.009 25.9057C32.0323 27.0359 31.3218 27.6958 31.3452 28.8152C31.3685 29.9346 32.1787 31.5802 33.0419 32.266C33.5702 32.5921 34.1201 32.8803 34.6877 33.1287C40.5594 25.9306 40.5335 15.4938 34.6262 8.32583L34.6538 8.31289Z" fill="#E3B430" stroke="#E3B430" stroke-width="1.09918" stroke-linecap="round"/>
</g>
</g>
</g>
<defs>
<clipPath id="clip0_86_9157">
<rect width="40" height="40" fill="white" transform="translate(0.169998 0.799988)"/>
</clipPath>
<clipPath id="clip1_86_9157">
<rect width="40" height="40" fill="white" transform="translate(0.169998 0.799988)"/>
</clipPath>
<clipPath id="clip2_86_9157">
<rect width="40" height="40" fill="white" transform="translate(0.169998 0.799988)"/>
</clipPath>
</defs>
</svg>
